<svg width="48" height="48" viewBox="0 0 48 48" fill="none" xmlns="http://www.w3.org/2000/svg">
<path d="M47.9987 23.3114C47.9404 27.6107 45.3541 37.0111 43.4599 39.7947C41.4199 42.797 38.6515 45.0487 35.4459 46.3021C33.3476 47.1183 26.9364 48 24.0004 48C21.0571 48 14.6532 47.1255 12.5549 46.3021C9.34206 45.0487 6.57358 42.797 4.54094 39.7947C2.66858 37.0329 0.0822379 27.6326 0.00209786 23.2968C-0.0343294 21.3584 0.402798 19.2816 1.37905 16.7603C3.00371 12.5921 10.5514 4.3431 14.2597 2.11325C16.9772 0.47366 20.0735 0 22.7473 0C23.7673 0 24.7289 0.0655837 25.5741 0.17489C32.5025 0.976469 43.0227 9.12342 45.8276 14.6179C47.3066 17.5109 48.0351 20.4403 47.9987 23.3114Z" fill="#161616"/>
<path d="M31.0545 19.3482V26.6161C29.2703 26.7753 27.472 26.7706 25.6597 26.6161V21.0762L22.3395 22.1392C22.4238 26.1009 22.4238 30.0159 22.3349 33.8746C20.7661 33.9776 17.8065 34.0291 16.4765 33.8746C16.2845 31.1023 16.3267 27.6978 16.4625 24.0264L13.0205 25.0894C13.1376 29.0699 13.1376 33.0176 13.0205 36.9279H25.6597V29.4961C27.4767 29.4165 29.2796 29.4165 31.0545 29.4961V36.9326H34.5152C34.1405 30.8026 34.2108 24.5743 34.5152 18.2617L31.0545 19.3482Z" fill="#F6F5F2"/>
<path d="M34.4352 12.8902C34.4586 12.2955 34.4867 11.6961 34.5148 11.0967L31.0541 12.1831V14.0235C23.1493 16.6553 15.1415 19.1701 7.04004 21.5724V25.0752C15.1415 22.2374 23.1493 19.5915 31.0541 17.1704C32.1499 16.8286 33.2363 16.5008 34.3228 16.173C36.1163 15.6344 37.9005 15.11 39.68 14.5901V11.0967C37.9333 11.6961 36.1913 12.3002 34.4352 12.8902Z" fill="#F6F5F2"/>
</svg>
